<svg xmlns="http://www.w3.org/2000/svg" data-name="Layer 1" viewBox="0 0 64 64"><circle cx="32" cy="32" r="27" fill="#39b54a"/><path fill="#ffd2b4" d="M48.75,53.16a26.94,26.94,0,0,1-33.5,0L16,50.5A9.12,9.12,0,0,1,24.79,44H39.21A9.12,9.12,0,0,1,48,50.5Z"/><path fill="#2a292a" d="M48.75,53.16a26.94,26.94,0,0,1-33.5,0L16,50.5A9.12,9.12,0,0,1,24.79,44H39.21A9.12,9.12,0,0,1,48,50.5Z"/><path fill="#ffd2b4" d="M36,39v5.76a2,2,0,0,1-1.11,1.8h0a6.46,6.46,0,0,1-5.78,0h0A2,2,0,0,1,28,44.76V39Z"/><path fill="#d1d3d4" d="M35.66,51.28,35,58.83a26.9,26.9,0,0,1-6,0l-.64-7.55,3.66-4Z"/><path fill="#ffd2b4" d="M32,15.21C43,15.21,42.1,26,42.1,26c1.62-.17,2.9.49,2.9,2.86s-1,2.86-2.26,3a.28.28,0,0,0-.26.27c-.38,3.69-2.9,6.39-5.38,8.2a8.59,8.59,0,0,1-10.19,0c-2.48-1.81-5-4.52-5.38-8.2a.28.28,0,0,0-.26-.27c-1.27-.13-2.26-.63-2.26-3s1.22-3,2.84-2.86C21.84,26,20.94,15.21,32,15.21Z"/><circle cx="28.04" cy="28.35" r="1.7" fill="#2a292a"/><circle cx="35.96" cy="28.35" r="1.7" fill="#2a292a"/><path fill="#ffd2b4" d="M36,39v5.76a2,2,0,0,1-1.11,1.8h0a6.46,6.46,0,0,1-5.78,0h0A2,2,0,0,1,28,44.76V39Z"/><path fill="#262234" d="M36,41.08v1.5a9.16,9.16,0,0,1-8,0v-1.5a9.16,9.16,0,0,0,8,0Z" opacity=".1"/><path fill="#2a292a" d="M42.61,25.13v3.75l-.81-.15a1.14,1.14,0,0,1-.92-1.12,17.5,17.5,0,0,0-.53-4.28,13.15,13.15,0,0,1-2.54-.86,15.53,15.53,0,0,0,1,1.83.39.39,0,0,1-.39.58,11.93,11.93,0,0,1-5.27-2,14.47,14.47,0,0,0,.5,1.43.38.38,0,0,1-.49.5,12.28,12.28,0,0,1-4.55-2.67,17.07,17.07,0,0,0,.5,1.75.39.39,0,0,1-.52.48,12.62,12.62,0,0,1-4.28-2.77h0a15,15,0,0,0-1.17,6,1.13,1.13,0,0,1-.91,1.11l-.81.15V25.13a10.61,10.61,0,1,1,21.22,0Z"/><path fill="#be1e2d" d="M33.12,50.67H30.88a1,1,0,0,1-1-.72l-.79-2.71h5.73l-.79,2.71A1,1,0,0,1,33.12,50.67Z"/><path fill="#be1e2d" d="M33.67,59c-.55,0-1.11,0-1.67,0s-1.12,0-1.67,0l1-9.14h1.34Z"/><polygon fill="#f1f2f2" points="32 47.24 28.34 51.28 26.18 44 28 42.12 32 47.24"/><polygon fill="#f1f2f2" points="32 47.24 35.66 51.28 37.82 44 36 42.12 32 47.24"/><path fill="#2a292a" d="M18.17,25.38h2.46a0,0,0,0,1,0,0v7.39a0,0,0,0,1,0,0H18.17a1.92,1.92,0,0,1-1.92-1.92V27.29A1.92,1.92,0,0,1,18.17,25.38Z"/><path fill="#6d6e71" d="M20.19,25.38h1.13a.31.31,0,0,1,.31.31v6.77a.31.31,0,0,1-.31.31H20.19a0,0,0,0,1,0,0V25.38A0,0,0,0,1,20.19,25.38Z"/><path fill="#2a292a" d="M45.29,25.38h2.46a0,0,0,0,1,0,0v7.39a0,0,0,0,1,0,0H45.29a1.92,1.92,0,0,1-1.92-1.92V27.29A1.92,1.92,0,0,1,45.29,25.38Z" transform="rotate(-180 45.56 29.07)"/><path fill="#6d6e71" d="M42.37,25.37H43.5a.31.31,0,0,1,.31.31v6.77a.31.31,0,0,1-.31.31H42.37a0,0,0,0,1,0,0V25.37A0,0,0,0,1,42.37,25.37Z" transform="rotate(-180 43.09 29.07)"/><path fill="#2a292a" d="M41.12,36.47H32V35h9.12a2.7,2.7,0,0,0,2.7-2.7V25.13a11.81,11.81,0,0,0-23.63,0v4.29h-1.5V25.13a13.31,13.31,0,0,1,26.63,0v7.15A4.2,4.2,0,0,1,41.12,36.47Z"/><rect width="5.73" height="3.5" x="29.13" y="33.94" fill="#2a292a" rx=".94" ry=".94"/></svg>